<?xml version="1.0" encoding="utf-8"?>
<!-- Generator: Adobe Illustrator 19.0.0, SVG Export Plug-In . SVG Version: 6.00 Build 0)  -->
<!DOCTYPE svg PUBLIC "-//W3C//DTD SVG 1.1//EN" "http://www.w3.org/Graphics/SVG/1.1/DTD/svg11.dtd">
<svg version="1.1" id="Layer_1" xmlns="http://www.w3.org/2000/svg" xmlns:xlink="http://www.w3.org/1999/xlink" x="0px" y="0px"
	 viewBox="0 0 150 50" style="enable-background:new 0 0 150 50;" xml:space="preserve">
<style type="text/css">
	.st0{fill:#FFFFFF;}
</style>
<g id="XMLID_5_">
	<g id="XMLID_3_">
		<polygon id="XMLID_60_" class="st0" points="8.8,14.4 26.4,6.4 31.8,8.6 20.6,14.1 26.8,17.2 37.6,11.6 44,14.4 26.6,23.8 		"/>
	</g>
	<g id="XMLID_2_">
		<polygon id="XMLID_58_" class="st0" points="44.9,15.7 44.9,21.8 33.4,27.8 33.4,33.8 44.9,28.1 44.9,33.9 27.4,42.8 27.4,25.1 		
			"/>
	</g>
	<g id="XMLID_1_">
		<polygon id="XMLID_56_" class="st0" points="7.9,15.7 7.9,33.9 12.7,36.1 12.6,25 16.8,31.1 20.6,27.9 20.6,40.2 25.7,42.8 
			25.8,25.1 20.6,22.4 17.1,25.3 12.5,18.1 		"/>
	</g>
</g>
<g id="XMLID_30_">
	<g id="XMLID_31_">
		<path id="XMLID_112_" class="st0" d="M66,9.6h3.5l3.5,5.1l3.4-5.1H80v13.3h-4.2v-4.8l-2.7,4l-2.7-4v4.8H66V9.6z M68.5,21.3v-9.1
			l4.5,6.5l4.4-6.5v9.1H78V11.2h-0.5L73,17.7l-4.5-6.6H68v10.1H68.5z"/>
	</g>
	<g id="XMLID_34_">
		<path id="XMLID_106_" class="st0" d="M87.3,9.6h3.2l5,13.3h-4.2l-0.4-1.2h-4l-0.4,1.2h-4.2L87.3,9.6z M85.2,21.3l0.4-1h6.6l0.4,1
			h0.6l-3.8-10.1h-0.8l-3.8,10.1H85.2z M88.9,11.7l3.1,8.1h-6.2L88.9,11.7z M89.8,18.8l-0.9-2.3L88,18.8H89.8z"/>
	</g>
	<g id="XMLID_39_">
		<path id="XMLID_100_" class="st0" d="M97.8,9.6h4.6c0.8,0,1.6,0.1,2.4,0.3c0.7,0.2,1.4,0.6,1.9,1c0.5,0.4,0.9,1,1.2,1.6
			c0.3,0.6,0.4,1.4,0.4,2.2c0,0.7-0.1,1.2-0.3,1.7c-0.2,0.5-0.4,0.8-0.6,1.2c-0.3,0.3-0.6,0.6-0.9,0.9l2.5,4.4h-5l-2-3.4v3.4h-4.2
			V9.6z M101.9,18.3c0.5,0,1-0.1,1.5-0.2l1.9,3.2h0.6l-2-3.3c0.7-0.3,1.3-0.6,1.7-1.2s0.6-1.2,0.6-2c0-0.6-0.1-1.1-0.3-1.5
			c-0.2-0.4-0.5-0.8-0.9-1.1c-0.4-0.3-0.9-0.5-1.4-0.7c-0.5-0.2-1.1-0.2-1.7-0.2h-2.2v10.1h0.5v-3H101.9z M100.3,17.8v-6.1h1.6
			c1.2,0,2.2,0.3,2.8,0.8c0.7,0.5,1,1.3,1,2.3c0,1-0.3,1.7-1,2.3c-0.7,0.5-1.6,0.8-2.8,0.8H100.3z M102,16.1h0.2
			c0.5,0,0.9-0.1,1.3-0.3c0.4-0.2,0.5-0.6,0.5-1.1c0-0.5-0.2-0.9-0.5-1.1c-0.4-0.2-0.8-0.3-1.3-0.3H102V16.1z"/>
	</g>
	<g id="XMLID_44_">
		<path id="XMLID_96_" class="st0" d="M113.1,13.1h-2.4V9.6h9.3v3.5h-2.4v9.8h-4.4V13.1z M115.6,21.3v-9.6h2.8v-0.5h-6.2v0.5h2.8
			v9.6H115.6z"/>
	</g>
	<g id="XMLID_47_">
		<path id="XMLID_92_" class="st0" d="M122.7,9.6h4.5v13.3h-4.5V9.6z M125.2,21.3V11.2h-0.5v10.1H125.2z"/>
	</g>
	<g id="XMLID_50_">
		<path id="XMLID_88_" class="st0" d="M130.6,9.6h3.5l3.7,5.1V9.6h4.2v13.3h-3.5l-3.6-5.1v5.1h-4.2V9.6z M132.9,21.3v-9.2l6.6,9.2
			h0.5V11.2h-0.5v9.2l-6.6-9.2h-0.5v10.1H132.9z"/>
	</g>
</g>
<g id="XMLID_6_">
	<g id="XMLID_8_">
		<path id="XMLID_83_" class="st0" d="M65.7,34.1c0-1,0.2-1.8,0.5-2.6c0.3-0.8,0.8-1.4,1.4-2c0.6-0.6,1.2-1,2-1.3
			c0.8-0.3,1.6-0.4,2.4-0.4c0.7,0,1.3,0.1,1.8,0.2s1,0.3,1.4,0.4c0.4,0.2,0.8,0.4,1.2,0.6l-1.9,3.3c-0.2-0.1-0.4-0.3-0.6-0.4
			c-0.2-0.1-0.4-0.2-0.7-0.3c-0.3-0.1-0.6-0.1-1-0.1c-0.4,0-0.7,0.1-1,0.2c-0.3,0.1-0.6,0.3-0.8,0.5c-0.2,0.2-0.4,0.5-0.5,0.8
			c-0.1,0.3-0.2,0.6-0.2,1s0.1,0.7,0.2,1c0.1,0.3,0.3,0.6,0.6,0.8s0.5,0.4,0.8,0.5c0.3,0.1,0.7,0.2,1.1,0.2c0.4,0,0.7,0,1-0.1
			c0.3-0.1,0.6-0.2,0.8-0.3c0.2-0.1,0.4-0.3,0.6-0.5l1.9,3.3c-0.3,0.3-0.7,0.5-1.2,0.7C75,39.9,74.6,40,74,40.2
			c-0.5,0.1-1.2,0.2-1.9,0.2c-0.9,0-1.8-0.2-2.6-0.5c-0.8-0.3-1.5-0.7-2.1-1.3s-1-1.2-1.3-2C65.9,35.9,65.7,35,65.7,34.1z M68,34.1
			c0-0.6,0.1-1.1,0.3-1.6c0.2-0.5,0.5-0.9,0.8-1.3c0.4-0.4,0.8-0.7,1.3-0.9c0.5-0.2,1.1-0.3,1.7-0.3c0.3,0,0.6,0,0.8,0.1
			c0.2,0,0.5,0.1,0.6,0.2c0.2,0.1,0.4,0.1,0.5,0.2l0.3-0.4c-0.2-0.1-0.4-0.2-0.6-0.2c-0.2-0.1-0.4-0.1-0.7-0.2
			c-0.3,0-0.6-0.1-0.9-0.1c-0.6,0-1.2,0.1-1.8,0.3c-0.6,0.2-1,0.5-1.5,0.9c-0.4,0.4-0.8,0.9-1,1.5c-0.3,0.6-0.4,1.2-0.4,1.9
			c0,0.7,0.1,1.3,0.4,1.9c0.2,0.6,0.6,1,1,1.4c0.4,0.4,0.9,0.7,1.5,0.9c0.6,0.2,1.2,0.3,1.8,0.3c0.4,0,0.7,0,1-0.1
			c0.3-0.1,0.5-0.1,0.7-0.2c0.2-0.1,0.4-0.2,0.6-0.3l-0.3-0.4c-0.2,0.1-0.3,0.2-0.5,0.3c-0.2,0.1-0.4,0.1-0.6,0.2
			c-0.3,0.1-0.5,0.1-0.9,0.1c-0.7,0-1.3-0.1-1.8-0.3c-0.5-0.2-1-0.5-1.3-0.9c-0.4-0.4-0.6-0.8-0.8-1.3C68.1,35.2,68,34.7,68,34.1z"
			/>
	</g>
	<g id="XMLID_11_">
		<path id="XMLID_77_" class="st0" d="M82.7,28.1h2.9l4.6,12h-3.8L86,39h-3.6L82,40.1h-3.8L82.7,28.1z M80.9,38.7l0.3-0.9h5.9
			l0.3,0.9H88l-3.5-9.1h-0.7l-3.5,9.1H80.9z M84.2,30l2.8,7.4h-5.6L84.2,30z M85,36.4l-0.8-2.1l-0.8,2.1H85z"/>
	</g>
	<g id="XMLID_16_">
		<path id="XMLID_71_" class="st0" d="M92.6,28.1h4.1c0.8,0,1.5,0.1,2.1,0.3c0.7,0.2,1.2,0.5,1.7,0.9c0.5,0.4,0.9,0.9,1.1,1.5
			c0.3,0.6,0.4,1.3,0.4,2c0,0.6-0.1,1.1-0.3,1.5c-0.2,0.4-0.4,0.8-0.6,1c-0.2,0.3-0.5,0.6-0.8,0.8l2.2,4h-4.5l-1.8-3v3h-3.8V28.1z
			 M96.3,35.9c0.5,0,0.9,0,1.4-0.1l1.7,2.9h0.6l-1.8-3c0.6-0.2,1.2-0.6,1.5-1.1c0.4-0.5,0.6-1.1,0.6-1.8c0-0.5-0.1-1-0.3-1.4
			s-0.5-0.7-0.8-1c-0.4-0.3-0.8-0.5-1.3-0.6c-0.5-0.1-1-0.2-1.6-0.2h-1.9v9.1h0.5v-2.7H96.3z M94.9,35.5V30h1.5
			c1.1,0,1.9,0.2,2.6,0.7c0.6,0.5,0.9,1.2,0.9,2.1c0,0.9-0.3,1.6-0.9,2c-0.6,0.5-1.5,0.7-2.6,0.7H94.9z M96.4,34h0.2
			c0.5,0,0.8-0.1,1.2-0.3c0.3-0.2,0.5-0.5,0.5-1s-0.2-0.8-0.5-1c-0.3-0.2-0.7-0.3-1.2-0.3h-0.2V34z"/>
	</g>
	<g id="XMLID_21_">
		<path id="XMLID_67_" class="st0" d="M105.2,28.1h3.2l3.1,4.6l3.1-4.6h3.2v12H114v-4.3l-2.4,3.6l-2.5-3.6v4.3h-3.8V28.1z
			 M107.5,38.7v-8.3l4,5.9l4-5.9v8.3h0.5v-9.1h-0.5l-4,5.9l-4-5.9H107v9.1H107.5z"/>
	</g>
	<g id="XMLID_24_">
		<path id="XMLID_63_" class="st0" d="M121.2,28.1h7.1v3.1h-3.2v1.3h3.2v3h-3.2V37h3.4v3.1h-7.2V28.1z M127.1,38.7v-0.4h-3.6v-3.9
			h3.4v-0.4h-3.4V30h3.6v-0.4H123v9.1H127.1z"/>
	</g>
	<g id="XMLID_27_">
		<path id="XMLID_57_" class="st0" d="M131.7,28.1h3.1l3.3,4.6v-4.6h3.8v12h-3.2l-3.3-4.6v4.6h-3.8V28.1z M133.8,38.7v-8.3l5.9,8.3
			h0.5v-9.1h-0.5v8.3l-5.9-8.3h-0.5v9.1H133.8z"/>
	</g>
</g>
<g id="XMLID_4_">
	<rect id="XMLID_53_" x="55" y="12" class="st0" width="2" height="26"/>
</g>
</svg>
