<?xml version="1.0" encoding="utf-8"?>
<!-- Generator: Adobe Illustrator 19.0.0, SVG Export Plug-In . SVG Version: 6.00 Build 0)  -->
<!DOCTYPE svg PUBLIC "-//W3C//DTD SVG 1.1//EN" "http://www.w3.org/Graphics/SVG/1.1/DTD/svg11.dtd">
<svg version="1.1" id="Layer_1" xmlns="http://www.w3.org/2000/svg" xmlns:xlink="http://www.w3.org/1999/xlink" x="0px" y="0px"
	 viewBox="0 0 150 50" style="enable-background:new 0 0 150 50;" xml:space="preserve">
<style type="text/css">
	.st0{clip-path:url(#XMLID_5_);fill:#FFFFFF;}
	.st1{fill:#FFFFFF;}
</style>
<g id="XMLID_1_">
	<g>
		<defs>
			<rect id="XMLID_2_" x="4" y="12" width="26.5" height="26.1"/>
		</defs>
		<clipPath id="XMLID_5_">
			<use xlink:href="#XMLID_2_"  style="overflow:visible;"/>
		</clipPath>
		<polygon id="XMLID_38_" class="st0" points="17.3,12 4.6,17.7 17.3,24.4 29.9,17.7 25.2,15.7 17.5,19.7 13.1,17.5 21.1,13.6 		"/>
		<polygon id="XMLID_37_" class="st0" points="17.9,25.4 18,38 30.5,31.7 30.5,27.5 22.3,31.6 22.3,27.3 30.5,23 30.5,18.6 		"/>
		<polygon id="XMLID_36_" class="st0" points="4,31.7 7.4,33.2 7.4,25.3 10.4,29.6 13.1,27.3 13.1,36.2 16.7,38 16.8,25.4 
			13.1,23.4 10.6,25.5 7.3,20.3 4,18.6 		"/>
	</g>
</g>
<g id="XMLID_3_">
	<path id="XMLID_6_" class="st1" d="M52.5,29.7c-0.2,0.3-0.5,0.7-0.7,1.2c-0.3,0.4-0.5,0.8-0.7,1.2c-0.3-0.2-0.6-0.3-0.9-0.5
		c-0.3-0.2-0.6-0.3-0.9-0.5s-0.6-0.3-0.9-0.4s-0.5-0.2-0.7-0.3v0c0.1-0.1,0.2-0.1,0.3-0.2c0.1-0.1,0.1-0.2,0.2-0.4
		c0.1-0.2,0.1-0.4,0.1-0.6c0-0.2,0-0.5,0-0.9l-0.1-3.3c0-0.4,0-0.7,0.1-1c0.1-0.3,0.2-0.5,0.3-0.8s0.3-0.4,0.5-0.6s0.4-0.3,0.6-0.5
		v0c-0.4,0-0.8,0-1.1-0.1c-0.4-0.1-0.7-0.2-1-0.3c-0.3-0.1-0.6-0.3-0.9-0.4s-0.5-0.3-0.7-0.5l-0.5,0.5l-0.1,8.2
		c0.2,0.1,0.4,0.2,0.6,0.3s0.3,0.2,0.5,0.3V30c-0.1,0.1-0.2,0.3-0.4,0.5c-0.1,0.2-0.3,0.4-0.4,0.6s-0.3,0.4-0.4,0.6
		c-0.1,0.2-0.3,0.4-0.4,0.5c-0.2-0.1-0.4-0.3-0.7-0.5c-0.2-0.2-0.5-0.3-0.7-0.5c-0.2-0.2-0.5-0.3-0.7-0.5c-0.2-0.1-0.4-0.3-0.6-0.3
		v-0.1c0.1-0.1,0.2-0.2,0.3-0.3s0.1-0.2,0.2-0.3c0-0.1,0.1-0.3,0.1-0.5c0-0.2,0-0.4,0-0.7l-0.1-6.6c-0.4-0.2-0.8-0.4-1.2-0.7
		c-0.4-0.3-0.7-0.5-0.9-0.7c-0.1,0.1-0.2,0.2-0.4,0.4c-0.2,0.2-0.3,0.3-0.5,0.4c0,0.4,0,0.9,0,1.4c0,0.6,0,1.1,0,1.6
		c0,0.6,0,1.3,0,1.9c0,0.4,0,0.7-0.1,0.9c0,0.3-0.1,0.5-0.2,0.7c-0.1,0.2-0.2,0.4-0.3,0.6s-0.3,0.3-0.5,0.5v0
		c0.4,0.1,0.8,0.2,1.2,0.3c0.4,0.1,0.8,0.2,1.3,0.3c-0.2,0.4-0.4,0.8-0.6,1.2c-0.2,0.4-0.4,0.8-0.6,1.2c-0.9-0.4-1.7-0.7-2.3-1
		c-0.6-0.2-1.1-0.4-1.5-0.4v-0.1c0.2-0.1,0.3-0.2,0.5-0.4c0.1-0.1,0.3-0.3,0.4-0.5c0.1-0.2,0.2-0.5,0.2-0.7s0.1-0.7,0.1-1.1
		l-0.1-5.8c-0.2-0.1-0.4-0.2-0.6-0.4c-0.2-0.1-0.4-0.2-0.6-0.3c-0.2-0.1-0.4-0.2-0.6-0.3c-0.2-0.1-0.3-0.2-0.5-0.2v-0.1
		c0.3-0.4,0.7-0.8,1-1.1c0.3-0.4,0.6-0.7,0.9-1.1c0.2,0.2,0.5,0.4,0.8,0.6s0.5,0.4,0.8,0.6c0.3,0.2,0.5,0.4,0.7,0.5
		c0.2,0.2,0.4,0.3,0.6,0.4c0.1-0.1,0.3-0.2,0.4-0.4c0.2-0.2,0.4-0.3,0.6-0.5c0.2-0.2,0.4-0.4,0.6-0.6c0.2-0.2,0.4-0.4,0.6-0.7
		c0.2,0.2,0.5,0.3,0.8,0.5c0.3,0.2,0.6,0.4,1,0.6c0.3,0.2,0.6,0.4,0.9,0.5c0.3,0.2,0.5,0.3,0.6,0.3l2.1-2c0.8,0.6,1.5,1,2.1,1.2
		s1,0.3,1.3,0.3c0.3,0,0.5,0,0.7-0.1c0.2,0,0.4-0.1,0.6-0.2l0.2,0.2c-0.2,0.2-0.4,0.4-0.6,0.6c-0.2,0.2-0.3,0.5-0.5,0.8
		s-0.3,0.6-0.3,1s-0.1,0.8-0.1,1.3l0,5.4c0.3,0.1,0.5,0.2,0.8,0.3C51.9,29.6,52.2,29.7,52.5,29.7L52.5,29.7z"/>
	<path id="XMLID_8_" class="st1" d="M59.5,32.1l-1.8-1.5c-0.2,0.2-0.4,0.4-0.7,0.7c-0.3,0.3-0.5,0.6-0.8,0.9
		c-0.4-0.3-0.9-0.5-1.5-0.8c-0.5-0.3-1.1-0.6-1.7-0.9c0.1-0.2,0.2-0.4,0.2-0.7c0.1-0.3,0.1-0.6,0.1-0.9l0.1-2.6c0-0.3,0-0.6,0-0.8
		c0-0.3-0.1-0.5-0.2-0.6c0.2-0.1,0.5-0.3,0.8-0.6c0.3-0.3,0.6-0.5,0.9-0.8c0.3-0.3,0.6-0.5,0.8-0.7c0.2-0.2,0.4-0.4,0.5-0.5
		c0.4,0.1,0.7,0.2,1,0.3s0.6,0.2,0.9,0.2c0.3,0.1,0.6,0.1,0.9,0.2c0.3,0.1,0.6,0.1,1,0.2c-0.1,0.3-0.2,0.6-0.3,0.9
		c0,0.3-0.1,0.6-0.1,1l-0.1,4.4l1.5,0.9v0L59.5,32.1z M57.7,24.4c-0.1,0-0.3,0-0.4-0.1c-0.2,0-0.3-0.1-0.5-0.1s-0.3-0.1-0.5-0.1
		s-0.3-0.1-0.5-0.2h-0.1l0.1,5.4l1.7,0.7h0.1c0-0.1,0-0.3,0-0.5s0-0.5,0-0.8c0-0.3,0-0.7,0-1.1c0-0.4,0-0.8,0-1.2c0-0.4,0-0.8,0-1.1
		C57.6,25.1,57.6,24.7,57.7,24.4z"/>
	<path id="XMLID_11_" class="st1" d="M66.1,26.8L66.1,26.8C66,26.5,66,26.3,66,26c0-0.3-0.1-0.5-0.1-0.8c-0.1-0.2-0.1-0.5-0.2-0.7
		c-0.1-0.2-0.1-0.4-0.2-0.6l-0.7,0.6c0,0.2,0,0.5,0,0.8c0,0.4,0,0.8,0,1.2l0,3c0.3,0.1,0.7,0.2,1,0.4c0.4,0.1,0.7,0.2,1.1,0.3v0.1
		L65,32.2c-0.5-0.2-1-0.5-1.6-0.7c-0.5-0.2-1-0.4-1.6-0.5c0.1-0.2,0.2-0.5,0.3-0.8c0.1-0.3,0.1-0.7,0.1-1.2l0.1-4.1
		c-0.3-0.2-0.6-0.4-0.8-0.7c-0.3-0.2-0.5-0.4-0.6-0.4l1.7-1.7l1.9,1.8c0.1-0.1,0.3-0.3,0.6-0.5c0.3-0.2,0.5-0.4,0.8-0.6
		c0.3-0.2,0.6-0.5,1-0.8c0.6,0.8,0.9,1.8,1.1,3.1L66.1,26.8z"/>
	<path id="XMLID_13_" class="st1" d="M73.5,24.8c-0.3-0.1-0.6-0.1-0.8-0.1c-0.3,0-0.5,0-0.8,0c0,0.3,0,0.6,0,1.1s0,0.9,0,1.3
		s0,0.9,0,1.3c0,0.4,0,0.8,0,1.1c0.4,0.2,0.8,0.3,1.2,0.4c0.4,0.1,0.8,0.2,1.4,0.3v0l-1.9,1.9c-0.6-0.3-1.1-0.5-1.6-0.7
		s-1-0.4-1.6-0.6c0.1-0.2,0.2-0.5,0.2-0.7c0-0.3,0.1-0.6,0-0.9l-0.1-4.3l-1.1,0l0,0c0.2-0.3,0.4-0.6,0.5-0.8s0.4-0.5,0.5-0.8v-0.6
		c0-0.2,0-0.4-0.1-0.6c-0.1-0.2-0.1-0.4-0.2-0.5v0c0.2-0.1,0.4-0.2,0.6-0.4c0.2-0.1,0.5-0.3,0.8-0.5c0.3-0.2,0.5-0.4,0.8-0.5
		c0.3-0.2,0.5-0.4,0.7-0.5l0.1,0.1c-0.1,0.4-0.2,0.8-0.3,1.4c-0.1,0.5-0.1,1.2-0.1,2.1c0.4,0,0.9,0,1.3,0c0.4,0,0.9,0,1.3-0.1
		L73.5,24.8z"/>
	<path id="XMLID_15_" class="st1" d="M78.9,30.4c-0.1,0.1-0.3,0.2-0.4,0.4c-0.2,0.2-0.3,0.3-0.5,0.5s-0.3,0.3-0.5,0.5
		c-0.2,0.2-0.3,0.3-0.4,0.4c-0.2-0.1-0.4-0.3-0.5-0.5c-0.2-0.2-0.4-0.3-0.6-0.5s-0.4-0.3-0.6-0.4c-0.2-0.1-0.3-0.2-0.5-0.3
		c0.3-0.2,0.4-0.5,0.5-0.8c0.1-0.3,0.2-0.7,0.2-1l0.1-4c-0.2-0.2-0.4-0.3-0.5-0.4c-0.1-0.1-0.3-0.2-0.5-0.3c0.1-0.1,0.2-0.2,0.4-0.4
		s0.3-0.3,0.5-0.4c0.2-0.2,0.3-0.3,0.5-0.5c0.2-0.2,0.3-0.3,0.5-0.5c0.3,0.3,0.7,0.5,1.1,0.8c0.4,0.2,0.7,0.4,0.9,0.6
		C78.1,23.7,78,24,78,24.3c0,0.3-0.1,0.6-0.1,0.9l-0.1,4.6c0.2,0.1,0.3,0.2,0.5,0.3S78.7,30.2,78.9,30.4L78.9,30.4z M79.4,18.7
		c-0.5,0.4-0.9,0.7-1.4,1.1s-0.8,0.8-1.1,1.1c-0.2,0-0.5,0.1-0.7,0.1s-0.4,0.1-0.6,0.2l0-0.1c0.3-0.4,0.6-0.7,0.9-1.1s0.6-0.7,0.9-1
		c0.4-0.1,0.7-0.2,1-0.2s0.6-0.1,1-0.2L79.4,18.7z"/>
	<path id="XMLID_18_" class="st1" d="M87.8,30.5c-0.3,0.2-0.6,0.5-1,0.7c-0.4,0.3-0.7,0.6-1.1,0.8c-0.2-0.2-0.5-0.5-0.9-0.7
		c-0.3-0.2-0.7-0.5-1-0.8c0.1-0.1,0.2-0.3,0.3-0.5c0.1-0.2,0.1-0.4,0.2-0.6c0-0.2,0.1-0.5,0.1-0.8c0-0.3,0-0.6,0-1l0-3
		c-0.1,0-0.2-0.1-0.4-0.1c-0.2-0.1-0.3-0.1-0.5-0.2c-0.2-0.1-0.4-0.1-0.5-0.1c-0.2,0-0.3-0.1-0.4-0.1v5.7c0.1,0.1,0.2,0.2,0.4,0.3
		c0.2,0.1,0.3,0.2,0.5,0.3v0L81.6,32c-0.1-0.1-0.3-0.2-0.5-0.4s-0.4-0.3-0.5-0.4c-0.2-0.1-0.4-0.3-0.5-0.4c-0.2-0.1-0.3-0.2-0.5-0.3
		c0.3-0.2,0.4-0.4,0.6-0.7s0.2-0.7,0.2-1.3v-3.9c-0.2-0.2-0.4-0.3-0.6-0.4c-0.2-0.1-0.4-0.2-0.6-0.3c0.2-0.2,0.3-0.3,0.5-0.5
		c0.1-0.1,0.3-0.3,0.4-0.4s0.3-0.3,0.4-0.4c0.1-0.1,0.3-0.3,0.4-0.5c0.1,0.1,0.2,0.2,0.4,0.3c0.1,0.1,0.3,0.3,0.5,0.4
		s0.3,0.3,0.5,0.4c0.2,0.1,0.3,0.2,0.4,0.3c0.2-0.2,0.5-0.4,0.8-0.7c0.3-0.3,0.5-0.5,0.7-0.7c0.2,0.1,0.4,0.2,0.7,0.4
		s0.6,0.3,0.8,0.4c0.3,0.1,0.6,0.3,0.8,0.4c0.3,0.1,0.5,0.2,0.7,0.3c-0.1,0.1-0.2,0.4-0.2,0.7c-0.1,0.3-0.1,0.7-0.1,1.2v4.2
		c0.2,0.1,0.4,0.2,0.5,0.4C87.5,30.2,87.6,30.3,87.8,30.5L87.8,30.5z"/>
	<path id="XMLID_20_" class="st1" d="M100.2,22.5c-0.2-0.1-0.4-0.2-0.7-0.4c-0.3-0.2-0.5-0.3-0.8-0.5s-0.5-0.3-0.7-0.5
		c-0.2-0.2-0.4-0.3-0.5-0.4l0,0l0.1,3.9c0,0.5,0.1,0.8,0.2,1.1c0.1,0.3,0.2,0.4,0.4,0.6v0.1c-0.2,0.1-0.5,0.2-0.8,0.4
		s-0.6,0.3-0.9,0.5c-0.3,0.2-0.6,0.3-0.9,0.5c-0.3,0.2-0.5,0.3-0.7,0.4c0.2,0.2,0.5,0.4,0.8,0.6c0.3,0.2,0.7,0.4,1.1,0.5
		s0.8,0.3,1.2,0.4c0.4,0.1,0.8,0.1,1.1,0.1c0.4,0,0.7,0,1.1-0.1c0.3,0,0.6-0.1,0.8-0.2l0.1,0.1l-1.7,2.5C98.1,32.1,97,32,96,31.7
		c-1-0.3-1.8-0.7-2.6-1.3c-0.7-0.6-1.3-1.3-1.7-2.2s-0.6-2-0.6-3.3c0-0.2,0-0.5,0.1-0.8c0-0.3,0.1-0.5,0.2-0.8
		c0.1-0.3,0.1-0.5,0.2-0.7s0.2-0.4,0.2-0.6c1.1-0.5,2.1-1.1,3.1-1.7c1-0.6,2-1.2,3-2c0.1,0.1,0.4,0.2,0.6,0.3
		c0.3,0.1,0.6,0.3,0.9,0.4c0.3,0.1,0.7,0.3,1,0.4s0.7,0.2,0.9,0.3L100.2,22.5z M95.1,20.9c-0.2,0.2-0.4,0.4-0.5,0.6
		c-0.2,0.2-0.3,0.5-0.4,0.8c-0.1,0.3-0.2,0.7-0.3,1.1s-0.1,0.9-0.1,1.5c0,0.2,0,0.5,0.1,0.7c0,0.3,0.1,0.6,0.2,0.9
		c0.1,0.3,0.2,0.6,0.3,0.8c0.1,0.3,0.2,0.5,0.3,0.6c0.2-0.2,0.3-0.4,0.4-0.7C95,26.9,95,26.5,95,26L95.1,20.9L95.1,20.9z"/>
	<path id="XMLID_23_" class="st1" d="M108,32.1l-1.8-1.5c-0.2,0.2-0.4,0.4-0.7,0.7s-0.5,0.6-0.8,0.9c-0.4-0.3-0.9-0.5-1.5-0.8
		c-0.5-0.3-1.1-0.6-1.7-0.9c0.1-0.2,0.2-0.4,0.2-0.7c0.1-0.3,0.1-0.6,0.1-0.9l0-2.6c0-0.3,0-0.6,0-0.8c0-0.3-0.1-0.5-0.2-0.6
		c0.2-0.1,0.5-0.3,0.8-0.6c0.3-0.3,0.6-0.5,0.9-0.8c0.3-0.3,0.6-0.5,0.8-0.7c0.2-0.2,0.4-0.4,0.5-0.5c0.4,0.1,0.7,0.2,1,0.3
		s0.6,0.2,0.9,0.2c0.3,0.1,0.6,0.1,0.9,0.2c0.3,0.1,0.6,0.1,1,0.2c-0.1,0.3-0.2,0.6-0.3,0.9s-0.1,0.6-0.1,1l-0.1,4.4l1.5,0.9v0
		L108,32.1z M106.2,24.4c-0.1,0-0.3,0-0.4-0.1c-0.2,0-0.3-0.1-0.5-0.1s-0.3-0.1-0.5-0.1s-0.3-0.1-0.5-0.2h0l0,5.4l1.7,0.7h0.1
		c0-0.1,0-0.3,0-0.5c0-0.2,0-0.5,0-0.8c0-0.3,0-0.7,0-1.1c0-0.4,0-0.8,0-1.2c0-0.4,0-0.8,0-1.1C106.2,25.1,106.2,24.7,106.2,24.4z"
		/>
	<path id="XMLID_26_" class="st1" d="M114.6,26.8L114.6,26.8c-0.1-0.2-0.1-0.5-0.1-0.8c0-0.3-0.1-0.5-0.1-0.8
		c-0.1-0.2-0.1-0.5-0.2-0.7c-0.1-0.2-0.1-0.4-0.2-0.6l-0.7,0.6c0,0.2,0,0.5,0,0.8c0,0.4,0,0.8,0,1.2l0,3c0.3,0.1,0.7,0.2,1,0.4
		c0.4,0.1,0.7,0.2,1.1,0.3v0.1l-1.7,1.8c-0.5-0.2-1-0.5-1.6-0.7c-0.5-0.2-1-0.4-1.6-0.5c0.1-0.2,0.2-0.5,0.3-0.8
		c0.1-0.3,0.1-0.7,0.1-1.2l0.1-4.1c-0.3-0.2-0.6-0.4-0.8-0.7c-0.3-0.2-0.5-0.4-0.6-0.4l1.7-1.7l1.9,1.8c0.1-0.1,0.3-0.3,0.6-0.5
		c0.3-0.2,0.5-0.4,0.8-0.6c0.3-0.2,0.6-0.5,1-0.8c0.6,0.8,0.9,1.8,1.1,3.1L114.6,26.8z"/>
	<path id="XMLID_28_" class="st1" d="M127.6,32.1c-0.3-0.3-0.6-0.6-0.9-0.9s-0.7-0.6-1-0.8c-0.3,0.3-0.7,0.5-1,0.8
		c-0.4,0.3-0.7,0.6-1,0.8c-0.3-0.3-0.7-0.7-1.1-1s-0.7-0.6-1-0.8c0.1-0.1,0.2-0.2,0.3-0.3c0.1-0.1,0.1-0.2,0.2-0.4s0.1-0.3,0.1-0.6
		c0-0.2,0-0.5,0-0.9l0.1-3.6c-0.1,0-0.2-0.1-0.3-0.2c-0.1-0.1-0.3-0.1-0.5-0.2c-0.2-0.1-0.3-0.1-0.5-0.1c-0.2,0-0.4-0.1-0.5-0.1
		l-0.1,5.6c0.1,0.1,0.3,0.2,0.4,0.4c0.2,0.1,0.3,0.2,0.5,0.3v0c-0.1,0.1-0.3,0.2-0.5,0.4s-0.4,0.3-0.5,0.5c-0.2,0.2-0.4,0.3-0.5,0.5
		c-0.2,0.2-0.3,0.3-0.5,0.4c-0.1-0.1-0.3-0.3-0.5-0.4c-0.2-0.2-0.3-0.3-0.5-0.5c-0.2-0.2-0.3-0.3-0.5-0.4c-0.2-0.1-0.3-0.3-0.4-0.3
		c0.1-0.1,0.2-0.2,0.3-0.4c0.1-0.1,0.2-0.3,0.2-0.5c0.1-0.2,0.1-0.4,0.1-0.6c0-0.3,0-0.6,0-0.9l0-3.3c-0.2-0.2-0.4-0.3-0.6-0.4
		s-0.4-0.3-0.7-0.4l1.7-1.8c0.1,0.1,0.2,0.2,0.4,0.4s0.3,0.3,0.5,0.4s0.3,0.3,0.5,0.4s0.3,0.3,0.4,0.4l1.5-1.4
		c0.1,0,0.3,0.1,0.5,0.1c0.2,0,0.4,0.1,0.6,0.1c0.2,0,0.4,0.1,0.5,0.1s0.3,0,0.4,0c0.1,0.2,0.2,0.4,0.3,0.6c0.1,0.2,0.2,0.4,0.3,0.6
		l1.6-1.4c0.1,0.1,0.3,0.2,0.6,0.3s0.5,0.2,0.8,0.4c0.3,0.1,0.5,0.2,0.8,0.4c0.3,0.1,0.5,0.2,0.7,0.3c-0.1,0.3-0.3,0.7-0.3,1.2
		s-0.1,1.2-0.1,2c0,0.6,0,1.2,0,1.7s0,0.9,0,1.1c0.4,0.2,0.8,0.4,1.1,0.6v0L127.6,32.1z M126.4,24.7c-0.1,0-0.2-0.1-0.4-0.2
		c-0.1-0.1-0.3-0.1-0.5-0.2s-0.3-0.1-0.5-0.1c-0.2,0-0.3-0.1-0.4-0.1l-0.1,5.5l1.2,0.6c0.1-0.1,0.1-0.2,0.2-0.2s0.1-0.2,0.2-0.3
		c0.1-0.1,0.1-0.3,0.1-0.5c0-0.2,0.1-0.5,0.1-0.8L126.4,24.7z"/>
	<path id="XMLID_31_" class="st1" d="M136.5,25.5c-0.3,0.2-0.6,0.4-1,0.7c-0.4,0.3-0.7,0.5-1,0.7c-0.3,0.2-0.6,0.5-0.9,0.7
		s-0.5,0.4-0.6,0.5c0,0.1,0,0.3,0,0.5s0,0.4,0,0.5c0.5,0.2,1,0.4,1.5,0.6c0.5,0.2,1.1,0.4,1.7,0.5v0c-0.1,0.1-0.3,0.3-0.4,0.4
		c-0.2,0.2-0.3,0.3-0.5,0.5c-0.2,0.2-0.3,0.3-0.5,0.5c-0.1,0.2-0.3,0.3-0.3,0.4c-1.3-0.7-2.6-1.4-3.9-1.9c0.1-0.1,0.1-0.3,0.1-0.5
		c0-0.2,0.1-0.4,0.1-0.7c0-0.3,0-0.6,0-1c0-0.4,0-0.8,0-1.3c0-0.7,0-1.3-0.1-1.7c-0.1-0.4-0.1-0.8-0.2-1c0.3-0.1,0.6-0.2,0.9-0.4
		c0.3-0.1,0.7-0.3,1-0.5c0.4-0.2,0.7-0.4,1.1-0.6c0.4-0.2,0.7-0.4,1-0.6c0.1,0.2,0.3,0.5,0.4,0.8c0.2,0.3,0.4,0.6,0.6,0.9
		c0.2,0.3,0.4,0.6,0.6,1C136.2,25,136.3,25.2,136.5,25.5z M134.5,26.2c-0.1-0.2-0.2-0.4-0.4-0.6c-0.1-0.2-0.3-0.5-0.4-0.7
		c-0.1-0.2-0.3-0.4-0.4-0.6c-0.1-0.2-0.2-0.3-0.3-0.5l0,0l0,3.4L134.5,26.2z"/>
	<path id="XMLID_34_" class="st1" d="M145.4,30.5c-0.3,0.2-0.6,0.5-1,0.7c-0.4,0.3-0.7,0.6-1.1,0.8c-0.2-0.2-0.5-0.5-0.9-0.7
		c-0.3-0.2-0.7-0.5-1-0.8c0.1-0.1,0.2-0.3,0.3-0.5c0.1-0.2,0.1-0.4,0.2-0.6c0-0.2,0.1-0.5,0.1-0.8c0-0.3,0-0.6,0-1l0-3
		c-0.1,0-0.2-0.1-0.4-0.1c-0.2-0.1-0.3-0.1-0.5-0.2c-0.2-0.1-0.4-0.1-0.5-0.1c-0.2,0-0.3-0.1-0.4-0.1v5.7c0.1,0.1,0.2,0.2,0.4,0.3
		c0.2,0.1,0.3,0.2,0.5,0.3v0l-1.9,1.6c-0.1-0.1-0.3-0.2-0.5-0.4s-0.4-0.3-0.5-0.4c-0.2-0.1-0.4-0.3-0.5-0.4
		c-0.2-0.1-0.3-0.2-0.5-0.3c0.3-0.2,0.4-0.4,0.6-0.7s0.2-0.7,0.2-1.3v-3.9c-0.2-0.2-0.4-0.3-0.6-0.4c-0.2-0.1-0.4-0.2-0.6-0.3
		c0.2-0.2,0.3-0.3,0.5-0.5c0.1-0.1,0.3-0.3,0.4-0.4s0.3-0.3,0.4-0.4c0.1-0.1,0.3-0.3,0.4-0.5c0.1,0.1,0.2,0.2,0.4,0.3
		c0.1,0.1,0.3,0.3,0.5,0.4s0.3,0.3,0.5,0.4c0.2,0.1,0.3,0.2,0.4,0.3c0.2-0.2,0.5-0.4,0.8-0.7c0.3-0.3,0.5-0.5,0.7-0.7
		c0.2,0.1,0.4,0.2,0.7,0.4s0.6,0.3,0.8,0.4c0.3,0.1,0.6,0.3,0.8,0.4c0.3,0.1,0.5,0.2,0.7,0.3c-0.1,0.1-0.2,0.4-0.2,0.7
		c-0.1,0.3-0.1,0.7-0.1,1.2v4.2c0.2,0.1,0.4,0.2,0.5,0.4C145,30.2,145.2,30.3,145.4,30.5L145.4,30.5z"/>
</g>
</svg>
